<svg viewBox="0 0 269 50.947" xmlns="http://www.w3.org/2000/svg" xmlns:xlink="http://www.w3.org/1999/xlink" width="269.000000" height="50.947021" fill="none">
	<rect id="Layer_1" width="269.000000" height="50.946968" x="0.000000" y="-0.000244" fill="rgb(255,255,255)" fill-opacity="0" />
	<path id="Vector" d="M22.6265 -0.000244141C21.7147 -0.000244141 21.0295 0.478749 20.5762 1.43674L0.157978 49.515C-0.205692 50.4677 0.0683781 50.9467 0.980189 50.9467L15.1844 50.9467C16.1805 50.9467 16.8657 50.4677 17.2294 49.515L23.5646 34.6189L23.5804 34.5767L28.7403 22.0966L28.7035 22.0966L31.9818 14.2537L31.987 14.2537L37.8795 -0.000244141L22.6265 -0.000244141Z" fill="rgb(244,117,33)" fill-rule="nonzero" />
	<path id="Vector" d="M66.1255 5.25289C66.1255 6.8004 65.6933 8.59531 64.8289 10.6429L58.9522 24.4863C58.0879 26.5286 57.2235 28.2024 56.3591 29.4973C55.4947 30.7922 54.5039 31.8133 53.3865 32.566C52.2744 33.3187 50.9673 33.8398 49.4599 34.1346C47.9578 34.4294 46.1394 34.5767 43.9996 34.5767L25.658 34.5767L30.8179 22.0966L34.0645 14.2537L39.177 1.88415C39.6461 0.741932 40.7635 -0.000244141 41.9968 -0.000244141L58.3408 -0.000244141C63.5271 -0.000244141 66.1255 1.75255 66.1255 5.25289Z" fill="rgb(244,117,33)" fill-rule="nonzero" />
	<path id="Vector" d="M121.298 -0.000244141L107.094 -0.000244141C106.182 -0.000244141 105.502 0.478749 105.049 1.43674L91.05 34.3715C90.4544 35.8295 89.569 36.5559 88.3831 36.5559L76.2291 36.5559C75.3648 36.5559 74.9326 36.2401 74.9326 35.6032C74.9326 35.3294 75.0433 34.9189 75.2752 34.3715L89.2738 1.43674C89.4109 1.06828 89.4794 0.799832 89.4794 0.615604C89.4794 0.205039 89.1368 -0.000244141 88.4516 -0.000244141L74.2474 -0.000244141C73.3356 -0.000244141 72.6557 0.478749 72.2024 1.43674L55.7424 40.2404C55.015 41.9669 54.6514 43.5092 54.6514 44.8777C54.6514 46.92 55.4103 48.4465 56.9388 49.4466C58.462 50.4467 60.5228 50.9467 63.1212 50.9467L89.2053 50.9467C91.614 50.9467 93.6537 50.7836 95.3139 50.4677C96.9794 50.1519 98.4236 49.594 99.6516 48.7992C100.88 48.0043 101.96 46.9095 102.893 45.5252C103.826 44.1355 104.748 42.3775 105.66 40.2404L122.12 1.43674C122.257 1.06828 122.32 0.799832 122.32 0.615604C122.32 0.205039 121.983 -0.000244141 121.298 -0.000244141Z" fill="rgb(244,117,33)" fill-rule="nonzero" />
	<path id="Vector" d="M153.121 36.5559L130.31 36.5559L145.199 1.43674C145.563 0.478749 145.289 -0.000244141 144.377 -0.000244141L129.219 -0.000244141C128.307 -0.000244141 127.627 0.478749 127.169 1.43674L106.75 49.515C106.387 50.4677 106.661 50.9467 107.572 50.9467L146.97 50.9467C147.971 50.9467 148.657 50.4677 149.02 49.515L153.938 37.9876C154.301 37.0349 154.027 36.5559 153.121 36.5559Z" fill="rgb(244,117,33)" fill-rule="nonzero" />
	<path id="Vector" d="M217.512 -0.000244141L185.831 -0.000244141C183.28 -0.000244141 181.129 0.152402 179.374 0.447167C177.625 0.741932 176.107 1.26303 174.836 2.01574C173.561 2.76318 172.465 3.80012 171.558 5.11603C170.646 6.43721 169.734 8.14264 168.823 10.2323L163.636 22.4387C162.951 24.0757 162.609 25.5075 162.609 26.7339C162.609 28.5077 163.373 29.8184 164.896 30.6553C166.425 31.4975 168.823 31.9186 172.101 31.9186L189.309 31.9186C190.174 31.9186 190.606 32.2134 190.606 32.8029C190.606 33.1713 190.516 33.5556 190.337 33.9662L190.2 34.2346C189.562 35.7821 188.629 36.5559 187.396 36.5559L160.153 36.5559C159.151 36.5559 158.466 37.0349 158.102 37.9876L153.185 49.515C152.821 50.4677 153.095 50.9467 154.007 50.9467L188.698 50.9467C191.017 50.9467 192.988 50.8099 194.601 50.5362C196.219 50.2625 197.632 49.7624 198.839 49.036C200.04 48.3096 201.079 47.3411 201.943 46.1357C202.807 44.9304 203.63 43.4197 204.404 41.6037L209.796 28.9867C210.618 27.076 211.024 25.4653 211.024 24.1442C211.024 20.6438 208.067 18.891 202.149 18.891L184.255 18.891C183.391 18.891 182.958 18.5752 182.958 17.9383C182.958 17.6646 183.074 17.254 183.301 16.7119L183.438 16.4382C184.028 14.9854 184.94 14.2537 186.168 14.2537L211.435 14.2537C212.437 14.2537 213.122 13.78 213.486 12.822L218.335 1.43674C218.472 1.06828 218.535 0.799832 218.535 0.615604C218.535 0.205039 218.197 -0.000244141 217.512 -0.000244141Z" fill="rgb(244,117,33)" fill-rule="nonzero" />
	<path id="Vector" d="M267.978 -0.000244141L228.164 -0.000244141C227.252 -0.000244141 226.573 0.478749 226.119 1.43674L205.701 49.515C205.337 50.4677 205.606 50.9467 206.518 50.9467L246.806 50.9467C247.808 50.9467 248.493 50.4677 248.857 49.515L253.774 37.9876C254.138 37.0349 253.864 36.5559 252.952 36.5559L228.37 36.5559L230.489 31.5765L252.546 31.5765C253.5 31.5765 254.159 31.0975 254.522 30.1447L258.554 20.6649C258.691 20.3017 258.76 20.028 258.76 19.849C258.76 19.4385 258.417 19.2332 257.732 19.2332L235.675 19.2332L237.794 14.2537L261.901 14.2537C262.897 14.2537 263.583 13.78 263.946 12.822L268.795 1.43674C268.932 1.06828 269.001 0.799832 269.001 0.615604C269.001 0.205039 268.658 -0.000244141 267.978 -0.000244141Z" fill="rgb(244,117,33)" fill-rule="nonzero" />
</svg>
