<svg viewBox="0 0 16 16" xmlns="http://www.w3.org/2000/svg" xmlns:xlink="http://www.w3.org/1999/xlink" width="16.000000" height="16.000000" fill="none">
	<rect id="teenyicons:button-solid" width="16.000000" height="16.000000" x="0.000000" y="0.000000" fill="rgb(255,255,255)" fill-opacity="0" />
	<path id="Vector" d="M4.26665 6.4C3.41796 6.4 2.60403 6.06286 2.00391 5.46274C1.40379 4.86263 1.06665 4.04869 1.06665 3.2C1.06665 2.35131 1.40379 1.53737 2.00391 0.937258C2.60403 0.337142 3.41796 9.76996e-16 4.26665 1.77636e-16L11.7333 0C12.582 6.80937e-16 13.3959 0.337142 13.9961 0.937258C14.5962 1.53737 14.9333 2.35131 14.9333 3.2C14.9333 4.04869 14.5962 4.86263 13.9961 5.46274C13.3959 6.06286 12.582 6.4 11.7333 6.4L9.59998 6.4L9.59998 3.73333C9.59998 3.02609 9.31903 2.34781 8.81894 1.84772C8.31884 1.34762 7.64056 1.06667 6.93332 1.06667C6.22607 1.06667 5.5478 1.34762 5.0477 1.84772C4.5476 2.34781 4.26665 3.02609 4.26665 3.73333L4.26665 6.4Z" fill="rgb(255,255,255)" fill-rule="nonzero" />
	<path id="Vector" d="M6.93328 2.13333C6.50894 2.13333 6.10197 2.3019 5.80191 2.60196C5.50186 2.90202 5.33328 3.30898 5.33328 3.73333L5.33328 8.58667C4.73096 8.70961 4.18961 9.0369 3.80085 9.51312C3.4121 9.98934 3.19983 10.5853 3.19995 11.2C3.19995 12.473 3.70566 13.6939 4.60584 14.5941C5.50601 15.4943 6.72691 16 7.99995 16L8.53329 16C9.94777 16 11.3043 15.4381 12.3045 14.4379C13.3047 13.4377 13.8666 12.0812 13.8666 10.6667L13.8666 9.7568C13.8666 9.14942 13.6253 8.56691 13.1959 8.13743C12.7664 7.70795 12.1839 7.46666 11.5765 7.46666L8.53329 7.46666L8.53329 3.73333C8.53329 3.30898 8.36471 2.90202 8.06466 2.60196C7.7646 2.3019 7.35763 2.13333 6.93328 2.13333Z" fill="rgb(255,255,255)" fill-rule="nonzero" />
</svg>
