<svg viewBox="0 0 20 20" xmlns="http://www.w3.org/2000/svg" xmlns:xlink="http://www.w3.org/1999/xlink" width="20.000000" height="20.000000" fill="none" customFrame="#000000">
	<path id="Vector" d="M17.0703 0L2.92969 0C1.31439 0 0 1.31439 0 2.92969L0 17.0703C0 18.6856 1.31439 20 2.92969 20L8.82812 20L8.82812 12.9297L6.48438 12.9297L6.48438 9.41406L8.82812 9.41406L8.82812 7.03125C8.82812 5.09262 10.4051 3.51562 12.3438 3.51562L15.8984 3.51562L15.8984 7.03125L12.3438 7.03125L12.3438 9.41406L15.8984 9.41406L15.3125 12.9297L12.3438 12.9297L12.3438 20L17.0703 20C18.6856 20 20 18.6856 20 17.0703L20 2.92969C20 1.31439 18.6856 0 17.0703 0Z" fill="rgb(255,255,255)" fill-rule="nonzero" />
</svg>
