<svg viewBox="0 0 20 20" xmlns="http://www.w3.org/2000/svg" xmlns:xlink="http://www.w3.org/1999/xlink" width="20.000000" height="20.000000" fill="none" customFrame="#000000">
	<g id="Group 59">
		<path id="Vector" d="M11.9126 10.0142C11.9126 11.0197 11.0974 11.835 10.0918 11.835C9.08625 11.835 8.271 11.0197 8.271 10.0142C8.271 9.00861 9.08625 8.19336 10.0918 8.19336C11.0974 8.19336 11.9126 9.00861 11.9126 10.0142Z" fill="rgb(255,255,255)" fill-rule="nonzero" />
		<path id="Vector" d="M13.1456 4.55176L7.04051 4.55176C5.71161 4.55176 4.63062 5.63276 4.63062 6.96165L4.63062 13.0667C4.63062 14.3956 5.71161 15.4766 7.04051 15.4766L13.1456 15.4766C14.4745 15.4766 15.5555 14.3956 15.5555 13.0667L15.5555 6.96165C15.5555 5.63276 14.4745 4.55176 13.1456 4.55176ZM10.093 13.0265C8.432 13.0265 7.08067 11.6752 7.08067 10.0142C7.08067 8.35314 8.432 7.00181 10.093 7.00181C11.7541 7.00181 13.1054 8.35314 13.1054 10.0142C13.1054 11.6752 11.7541 13.0265 10.093 13.0265ZM13.5472 7.16247C13.2144 7.16247 12.9447 6.89277 12.9447 6.56C12.9447 6.22723 13.2144 5.95753 13.5472 5.95753C13.88 5.95753 14.1497 6.22723 14.1497 6.56C14.1497 6.89277 13.88 7.16247 13.5472 7.16247Z" fill="rgb(255,255,255)" fill-rule="nonzero" />
		<path id="Vector" d="M14.7266 0L5.27344 0C2.36572 0 0 2.36572 0 5.27344L0 14.7266C0 17.6343 2.36572 20 5.27344 20L14.7266 20C17.6343 20 20 17.6343 20 14.7266L20 5.27344C20 2.36572 17.6343 0 14.7266 0ZM16.4844 12.9688C16.4844 14.9072 14.9072 16.4844 12.9688 16.4844L7.03125 16.4844C5.09277 16.4844 3.51562 14.9072 3.51562 12.9688L3.51562 7.03125C3.51562 5.09277 5.09277 3.51562 7.03125 3.51562L12.9688 3.51562C14.9072 3.51562 16.4844 5.09277 16.4844 7.03125L16.4844 12.9688Z" fill="rgb(255,255,255)" fill-rule="nonzero" />
	</g>
</svg>
