<svg viewBox="0 0 198 37.5" xmlns="http://www.w3.org/2000/svg" xmlns:xlink="http://www.w3.org/1999/xlink" width="198.000000" height="37.500000" fill="none">
	<rect id="Layer_1" width="198.000000" height="37.500000" x="0.000000" y="0.000000" fill="rgb(255,255,255)" fill-opacity="0" />
	<path id="Vector" d="M16.6548 0C15.9837 0 15.4794 0.352567 15.1457 1.0577L0.116681 36.4462C-0.151001 37.1474 0.0507306 37.5 0.721878 37.5L11.177 37.5C11.9102 37.5 12.4146 37.1474 12.6823 36.4462L17.3454 25.4817L17.357 25.4507L21.155 16.2646L21.1278 16.2646L23.5409 10.4918L23.5448 10.4918L27.882 0L16.6548 0Z" fill="rgb(244,117,33)" fill-rule="nonzero" />
	<path id="Vector" d="M48.672 3.86662C48.672 5.00568 48.3539 6.32684 47.7177 7.83397L43.3921 18.0236C42.7558 19.5268 42.1196 20.7589 41.4834 21.712C40.8471 22.665 40.1178 23.4167 39.2953 23.9707C38.4768 24.5247 37.5147 24.9083 36.4051 25.1253C35.2995 25.3422 33.9611 25.4507 32.386 25.4507L18.8855 25.4507L22.6835 16.2646L25.0732 10.4918L28.8363 1.38702C29.1816 0.546286 30.004 0 30.9118 0L42.942 0C46.7594 0 48.672 1.29016 48.672 3.86662Z" fill="rgb(244,117,33)" fill-rule="nonzero" />
	<path id="Vector" d="M89.2819 0L78.8267 0C78.1556 0 77.6551 0.352567 77.3215 1.0577L67.0176 25.2996C66.5793 26.3728 65.9275 26.9075 65.0546 26.9075L56.1086 26.9075C55.4724 26.9075 55.1542 26.675 55.1542 26.2062C55.1542 26.0048 55.2357 25.7026 55.4064 25.2996L65.7103 1.0577C65.8111 0.786497 65.8616 0.588904 65.8616 0.453301C65.8616 0.1511 65.6094 0 65.1051 0L54.6499 0C53.9788 0 53.4783 0.352567 53.1447 1.0577L41.0291 29.6195C40.4938 30.8903 40.2261 32.0255 40.2261 33.0329C40.2261 34.5361 40.7847 35.6597 41.9098 36.3958C43.0309 37.1319 44.5478 37.5 46.4604 37.5L65.6598 37.5C67.4327 37.5 68.9341 37.3799 70.1561 37.1474C71.382 36.915 72.445 36.5043 73.3489 35.9193C74.2528 35.3342 75.0481 34.5284 75.7348 33.5094C76.4215 32.4866 77.1004 31.1925 77.7715 29.6195L89.8871 1.0577C89.9879 0.786497 90.0345 0.588904 90.0345 0.453301C90.0345 0.1511 89.7862 0 89.2819 0Z" fill="rgb(244,117,33)" fill-rule="nonzero" />
	<path id="Vector" d="M112.706 26.9075L95.9156 26.9075L106.875 1.0577C107.143 0.352567 106.941 0 106.27 0L95.1126 0C94.4414 0 93.941 0.352567 93.6035 1.0577L78.5744 36.4462C78.3068 37.1474 78.5085 37.5 79.1796 37.5L108.179 37.5C108.916 37.5 109.42 37.1474 109.688 36.4462L113.307 27.9613C113.575 27.26 113.373 26.9075 112.706 26.9075Z" fill="rgb(244,117,33)" fill-rule="nonzero" />
	<path id="Vector" d="M160.102 5.33375e-15L136.782 5.33375e-15C134.905 5.33375e-15 133.322 0.112357 132.03 0.329321C130.742 0.546286 129.625 0.929848 128.69 1.48388C127.751 2.03404 126.944 2.79729 126.277 3.76589C125.606 4.73835 124.934 5.99365 124.263 7.53177L120.446 16.5164C119.942 17.7214 119.689 18.7752 119.689 19.6779C119.689 20.9836 120.252 21.9483 121.373 22.5643C122.498 23.1842 124.263 23.4942 126.676 23.4942L139.343 23.4942C139.979 23.4942 140.297 23.7111 140.297 24.1451C140.297 24.4163 140.231 24.6991 140.099 25.0013L139.998 25.1989C139.529 26.3379 138.842 26.9075 137.934 26.9075L117.882 26.9075C117.144 26.9075 116.64 27.26 116.372 27.9613L112.753 36.4462C112.485 37.1474 112.687 37.5 113.358 37.5L138.893 37.5C140.6 37.5 142.051 37.3993 143.238 37.1978C144.429 36.9963 145.468 36.6283 146.357 36.0936C147.241 35.5589 148.006 34.8461 148.642 33.9588C149.278 33.0716 149.883 31.9597 150.454 30.623L154.422 21.3361C155.027 19.9297 155.326 18.7442 155.326 17.7717C155.326 15.1953 153.15 13.9051 148.793 13.9051L135.622 13.9051C134.986 13.9051 134.668 13.6726 134.668 13.2038C134.668 13.0024 134.753 12.7002 134.92 12.3011L135.021 12.0996C135.456 11.0303 136.127 10.4918 137.031 10.4918L155.629 10.4918C156.366 10.4918 156.87 10.1431 157.138 9.43796L160.707 1.0577C160.808 0.786497 160.854 0.588904 160.854 0.453301C160.854 0.1511 160.606 5.33375e-15 160.102 5.33375e-15Z" fill="rgb(244,117,33)" fill-rule="nonzero" />
	<path id="Vector" d="M197.248 0L167.942 0C167.271 0 166.771 0.352567 166.437 1.0577L151.408 36.4462C151.14 37.1474 151.338 37.5 152.009 37.5L181.664 37.5C182.401 37.5 182.905 37.1474 183.173 36.4462L186.793 27.9613C187.06 27.26 186.859 26.9075 186.187 26.9075L168.094 26.9075L169.653 23.2423L185.889 23.2423C186.591 23.2423 187.076 22.8898 187.343 22.1885L190.311 15.2108C190.412 14.9434 190.463 14.742 190.463 14.6102C190.463 14.308 190.21 14.1569 189.706 14.1569L173.47 14.1569L175.03 10.4918L192.775 10.4918C193.508 10.4918 194.012 10.1431 194.28 9.43796L197.849 1.0577C197.95 0.786497 198 0.588904 198 0.453301C198 0.1511 197.748 0 197.248 0Z" fill="rgb(244,117,33)" fill-rule="nonzero" />
</svg>
