<svg viewBox="0 0 28.5675 28.5723" xmlns="http://www.w3.org/2000/svg" xmlns:xlink="http://www.w3.org/1999/xlink" width="28.567505" height="28.572266" fill="none" customFrame="#000000">
	<path id="Vector" d="M28.1789 24.7026L22.6157 19.1393C22.3646 18.8882 20.9292 17.5996 20.5487 17.2191L20.7575 18.7487C22.2976 16.779 23.2127 14.3015 23.2127 11.6064C23.2127 5.19496 18.0178 0 11.6064 0C5.19496 0 0 5.19496 0 11.6064C0 18.0178 5.19496 23.2127 11.6064 23.2127C14.3015 23.2127 16.779 22.2976 18.7487 20.7575L17.2191 20.6439C17.5045 20.9292 18.8882 22.3646 19.1393 22.6157L24.7026 28.1789C25.2271 28.7034 26.0753 28.7034 26.5942 28.1789L28.1733 26.5998C28.6979 26.0753 28.6979 25.2271 28.1789 24.7026ZM11.6064 18.7487C7.66132 18.7487 4.46399 15.557 4.46399 11.6064C4.46399 7.66132 7.65574 4.46399 11.6064 4.46399C15.5514 4.46399 18.7487 7.65574 18.7487 11.6064C18.7487 15.5514 15.557 18.7487 11.6064 18.7487Z" fill="rgb(255,255,255)" fill-rule="nonzero" />
</svg>
